# xmcd
#
# Track frame offsets: 
#        150
#        19547
#        34172
#        53912
#        70805
#        89477
#        111925
#        131775
#        145862
#        165455
#        195240
#
# Disc length: 3517 seconds
#
# Revision: 0
# Processed by: cddbd v1.5.2PL0 Copyright (c) Steve Scherf et al.
# Submitted via: ExactAudioCopy v0.99pb4
#
DISCID=920dbb0b
DTITLE=Jolin - Show Your Love
DYEAR=2002
DGENRE=Pop
TTITLE0=Show Your Love
TTITLE1=快有爱
TTITLE2=你还爱我吗
TTITLE3=Baby Face
TTITLE4=如果那天你说爱我
TTITLE5=舍不得
TTITLE6=爱上了一条街
TTITLE7=Pretty Pretty Day
TTITLE8=一眼就看见
TTITLE9=感觉你的存在
TTITLE10=Jolin's true life-Jolin 的电子情书
EXTD=
EXTT0=
EXTT1=
EXTT2=
EXTT3=
EXTT4=
EXTT5=
EXTT6=
EXTT7=
EXTT8=
EXTT9=
EXTT10=
PLAYORDER=
